<svg version="1.1" id="Layer_1" xmlns="http://www.w3.org/2000/svg" xmlns:xlink="http://www.w3.org/1999/xlink" x="0px" y="0px"
	 width="100%" viewBox="0 0 285 67" enable-background="new 0 0 285 67" xml:space="preserve">
<path fill="#000000" opacity="1.000000" stroke="none" 
	d="
M206.000000,68.000000 
	C137.333344,68.000000 69.166695,68.000000 1.000027,68.000000 
	C1.000018,45.666683 1.000018,23.333366 1.000009,1.000036 
	C95.999969,1.000024 190.999939,1.000024 285.999939,1.000012 
	C285.999939,23.333296 285.999939,45.666592 285.999969,67.999939 
	C259.500000,68.000000 233.000000,68.000000 206.000000,68.000000 
M9.216960,22.316919 
	C9.816825,22.528103 10.416691,22.739286 11.673654,22.967573 
	C12.105625,23.037889 12.537598,23.108208 12.966866,23.772467 
	C12.971726,24.168402 12.976587,24.564335 12.743231,25.299953 
	C14.026834,25.864687 15.290363,26.853680 16.597759,26.915539 
	C20.713615,27.110279 24.845942,26.956877 29.821959,26.967659 
	C36.193970,26.953157 42.565983,26.938656 49.287056,27.306717 
	C49.866417,28.329794 50.445778,29.352869 51.357632,30.963093 
	C52.618736,27.217182 55.204880,24.354210 51.849628,20.524996 
	C51.527916,20.082203 51.206200,19.639410 50.695595,18.491713 
	C48.857895,17.390413 47.023205,15.361854 45.181953,15.355884 
	C38.808254,15.335217 32.432274,16.018356 26.057161,16.433626 
	C30.842821,16.942518 35.637802,16.739140 40.404461,17.018677 
	C43.270954,17.186781 46.093311,18.107428 48.012676,18.793303 
	C37.361927,18.763317 26.711178,18.733330 15.773792,18.085712 
	C13.785131,17.367876 11.796470,16.650038 9.196790,16.176731 
	C8.059186,17.273439 6.921582,18.370146 5.783979,19.466854 
	C6.876191,20.299545 7.968404,21.132238 9.006463,21.986082 
	C9.006463,21.986082 9.035365,21.935631 9.216960,22.316919 
M20.097216,31.012226 
	C13.573782,31.076334 13.573782,31.076334 12.373698,34.386868 
	C16.347584,33.765598 20.273067,33.151897 24.198551,32.538200 
	C24.238659,32.304924 24.278769,32.071648 24.318876,31.838375 
	C23.170860,31.568415 22.022844,31.298454 20.097216,31.012226 
z"/>
<path fill="#5D717B" opacity="1.000000" stroke="none" 
	d="
M50.884483,19.196617 
	C51.206200,19.639410 51.527916,20.082203 51.752426,21.101799 
	C49.792820,22.093882 47.936199,22.837515 46.067066,22.870443 
	C35.036182,23.064775 24.002384,23.093830 12.969569,23.178526 
	C12.537598,23.108208 12.105625,23.037889 11.170019,22.728252 
	C10.122710,22.304499 9.579038,22.120066 9.035365,21.935631 
	C9.035365,21.935631 9.006463,21.986082 9.076694,21.649418 
	C9.756564,20.481991 10.366204,19.651226 11.400578,18.850998 
	C13.237017,18.822140 14.648723,18.762741 16.060429,18.703342 
	C26.711178,18.733330 37.361927,18.763317 48.790710,18.855350 
	C50.007324,19.010471 50.445908,19.103542 50.884483,19.196617 
z"/>
<path fill="#070A11" opacity="1.000000" stroke="none" 
	d="
M12.968218,23.475496 
	C24.002384,23.093830 35.036182,23.064775 46.067066,22.870443 
	C47.936199,22.837515 49.792820,22.093882 51.878029,21.347681 
	C55.204880,24.354210 52.618736,27.217182 51.357632,30.963093 
	C50.445778,29.352869 49.866417,28.329794 48.847305,26.867416 
	C41.903893,26.006630 35.400234,25.585140 28.440338,25.138245 
	C22.983217,25.061983 17.982334,25.011127 12.981449,24.960270 
	C12.976587,24.564335 12.971726,24.168402 12.968218,23.475496 
z"/>
<path fill="#0E1011" opacity="1.000000" stroke="none" 
	d="
M28.896576,25.163651 
	C35.400234,25.585140 41.903893,26.006630 48.672775,26.676136 
	C42.565983,26.938656 36.193970,26.953157 29.389664,26.656620 
	C28.937103,25.951605 28.916840,25.557629 28.896576,25.163651 
z"/>
<path fill="#0F1215" opacity="1.000000" stroke="none" 
	d="
M50.790039,18.844164 
	C50.445908,19.103542 50.007324,19.010471 49.252125,18.803642 
	C46.093311,18.107428 43.270954,17.186781 40.404461,17.018677 
	C35.637802,16.739140 30.842821,16.942518 26.057161,16.433626 
	C32.432274,16.018356 38.808254,15.335217 45.181953,15.355884 
	C47.023205,15.361854 48.857895,17.390413 50.790039,18.844164 
z"/>
<path fill="#09060A" opacity="1.000000" stroke="none" 
	d="
M20.486023,31.020359 
	C22.022844,31.298454 23.170860,31.568415 24.318876,31.838375 
	C24.278769,32.071648 24.238659,32.304924 24.198551,32.538200 
	C20.273067,33.151897 16.347584,33.765598 12.373698,34.386868 
	C13.573782,31.076334 13.573782,31.076334 20.486023,31.020359 
z"/>
<path fill="#161518" opacity="1.000000" stroke="none" 
	d="
M28.440338,25.138245 
	C28.916840,25.557629 28.937103,25.951605 28.964630,26.641911 
	C24.845942,26.956877 20.713615,27.110279 16.597759,26.915539 
	C15.290363,26.853680 14.026834,25.864687 12.862340,25.130112 
	C17.982334,25.011127 22.983217,25.061983 28.440338,25.138245 
z"/>
<path fill="#070A11" opacity="1.000000" stroke="none" 
	d="
M10.975844,18.820461 
	C10.366204,19.651226 9.756564,20.481991 9.103770,21.638844 
	C7.968404,21.132238 6.876191,20.299545 5.783978,19.466854 
	C6.921582,18.370146 8.059186,17.273439 9.640326,16.338381 
	C10.381188,17.273508 10.678516,18.046984 10.975844,18.820461 
z"/>
<path fill="#0F1215" opacity="1.000000" stroke="none" 
	d="
M11.400578,18.850998 
	C10.678516,18.046984 10.381188,17.273508 9.945834,16.216116 
	C11.796470,16.650038 13.785131,17.367876 15.917110,18.394527 
	C14.648723,18.762741 13.237017,18.822140 11.400578,18.850998 
z"/>
<path fill="#070A11" opacity="1.000000" stroke="none" 
	d="
M9.126163,22.126276 
	C9.579038,22.120066 10.122710,22.304499 10.841470,22.719702 
	C10.416691,22.739286 9.816825,22.528103 9.126163,22.126276 
z"/>
</svg>