<svg xmlns="http://www.w3.org/2000/svg" width="384pt" height="384pt" viewBox="0 0 384 384" version="1.1">
<g id="surface1750214">
<g id="Title-free-icon-0"><g id="Title_free_icon_kShpCLf-0"><path style=" stroke:none;fill-rule:nonzero;fill:rgb(37.647059%,49.019608%,54.509804%);fill-opacity:1;" d="M 370.878906 52 L 370.878906 84 L 13.121094 84 L 13.121094 52 C 13.121094 38.71875 23.839844 28 37.121094 28 L 346.882812 28 C 360.164062 28 370.882812 38.71875 370.882812 52 Z M 370.878906 52 " />
</g></g><g id="Title-free-icon-1"><g id="Title_free_icon_kShpCLf-1"><path style=" stroke:none;fill-rule:nonzero;fill:rgb(92.54902%,93.72549%,94.509804%);fill-opacity:1;" d="M 370.878906 84 L 370.878906 332 C 370.878906 345.28125 360.160156 356 346.878906 356 L 37.121094 356 C 23.839844 356 13.121094 345.28125 13.121094 332 L 13.121094 84 Z M 370.878906 84 " />
</g></g><g id="Title-free-icon-2"><g id="Title_free_icon_kShpCLf-2"><path style=" stroke:none;fill-rule:nonzero;fill:rgb(0%,0%,0%);fill-opacity:1;" d="M 196 192 C 189.371094 192 184 186.628906 184 180 L 184 168 L 72 168 L 72 180 C 72 186.628906 66.628906 192 60 192 C 53.371094 192 48 186.628906 48 180 L 48 156 C 48 149.371094 53.371094 144 60 144 L 196 144 C 202.628906 144 208 149.371094 208 156 L 208 180 C 208 186.628906 202.628906 192 196 192 Z M 196 192 " />
</g></g><g id="Title-free-icon-3"><g id="Title_free_icon_kShpCLf-3"><path style=" stroke:none;fill-rule:nonzero;fill:rgb(0%,0%,0%);fill-opacity:1;" d="M 128 300 C 121.371094 300 116 294.628906 116 288 L 116 160 C 116 153.371094 121.371094 148 128 148 C 134.628906 148 140 153.371094 140 160 L 140 288 C 140 294.628906 134.628906 300 128 300 Z M 128 300 " />
</g></g><g id="Title-free-icon-4"><g id="Title_free_icon_kShpCLf-4"><path style=" stroke:none;fill-rule:nonzero;fill:rgb(0%,0%,0%);fill-opacity:1;" d="M 148 304 L 108 304 C 101.371094 304 96 298.628906 96 292 C 96 285.371094 101.371094 280 108 280 L 148 280 C 154.628906 280 160 285.371094 160 292 C 160 298.628906 154.628906 304 148 304 Z M 324 168 L 252 168 C 245.371094 168 240 162.628906 240 156 C 240 149.371094 245.371094 144 252 144 L 324 144 C 330.628906 144 336 149.371094 336 156 C 336 162.628906 330.628906 168 324 168 Z M 324 232 L 252 232 C 245.371094 232 240 226.628906 240 220 C 240 213.371094 245.371094 208 252 208 L 324 208 C 330.628906 208 336 213.371094 336 220 C 336 226.628906 330.628906 232 324 232 Z M 324 296 L 252 296 C 245.371094 296 240 290.628906 240 284 C 240 277.371094 245.371094 272 252 272 L 324 272 C 330.628906 272 336 277.371094 336 284 C 336 290.628906 330.628906 296 324 296 Z M 324 296 " />
</g></g><g id="Title-free-icon-5"><g id="Title_free_icon_kShpCLf-5"><path style=" stroke:none;fill-rule:nonzero;fill:rgb(0%,0%,0%);fill-opacity:1;" d="M 340 368 L 44 368 C 32.332031 367.992188 21.144531 363.351562 12.898438 355.101562 C 4.648438 346.855469 0.0078125 335.667969 0 324 L 0 60 C 0.0078125 48.332031 4.648438 37.144531 12.898438 28.898438 C 21.144531 20.648438 32.332031 16.007812 44 16 L 340 16 C 351.667969 16.007812 362.855469 20.648438 371.101562 28.898438 C 379.351562 37.144531 383.992188 48.332031 384 60 L 384 324 C 383.992188 335.667969 379.351562 346.855469 371.101562 355.101562 C 362.855469 363.351562 351.667969 367.992188 340 368 Z M 44 40 C 32.976562 40 24 48.976562 24 60 L 24 324 C 24 335.023438 32.976562 344 44 344 L 340 344 C 351.023438 344 360 335.023438 360 324 L 360 60 C 360 48.976562 351.023438 40 340 40 Z M 44 40 " />
</g></g><g id="Title-free-icon-6"><g id="Title_free_icon_kShpCLf-6"><path style=" stroke:none;fill-rule:nonzero;fill:rgb(0%,0%,0%);fill-opacity:1;" d="M 372 96 L 12 96 C 5.371094 96 0 90.628906 0 84 C 0 77.371094 5.371094 72 12 72 L 372 72 C 378.628906 72 384 77.371094 384 84 C 384 90.628906 378.628906 96 372 96 Z M 372 96 " />
</g></g></g>
</svg>